<svg width="33" height="33" viewBox="0 0 33 33" fill="none" xmlns="http://www.w3.org/2000/svg">
<path fill-rule="evenodd" clip-rule="evenodd" d="M3.25023 1.25443C3.25023 1.04353 3.42846 0.872559 3.64833 0.872559H32.3115C32.5313 0.872559 32.7096 1.04353 32.7096 1.25443V28.8765C32.7096 29.0874 32.5313 29.2584 32.3115 29.2584C32.0916 29.2584 31.9134 29.0874 31.9134 28.8765V1.6363H3.64833C3.42846 1.6363 3.25023 1.46533 3.25023 1.25443Z" fill="white" stroke="white" stroke-width="0.5"/>
<path d="M3.66802 29.4344L3.79302 29.4344L3.79302 29.3094L3.79302 5.55071L5.4189 7.17659C5.62195 7.37964 5.95117 7.37964 6.15423 7.17659C6.35728 6.97353 6.35728 6.64431 6.15423 6.44126L3.64073 3.92776C3.43767 3.7247 3.10845 3.7247 2.9054 3.92776L0.3919 6.44126C0.188843 6.64431 0.188845 6.97353 0.391899 7.17659C0.594957 7.37964 0.924175 7.37964 1.12723 7.17659L2.75311 5.55071L2.75311 29.3094L2.75311 29.4344L2.87811 29.4344L3.66802 29.4344Z" fill="white" stroke="white" stroke-width="0.25"/>
<path d="M2.75212 29.7045V29.8295H2.87712L26.7603 29.8295L25.1261 31.4551C24.922 31.6582 24.922 31.9878 25.1261 32.1909C25.3299 32.3937 25.6601 32.3937 25.8639 32.1909L28.3905 29.6774C28.5947 29.4743 28.5947 29.1447 28.3905 28.9416L25.8639 26.4281C25.6601 26.2254 25.3299 26.2254 25.1261 26.4281C24.922 26.6312 24.922 26.9608 25.1261 27.1639L26.7603 28.7896L2.87712 28.7896H2.75212V28.9146V29.7045Z" fill="white" stroke="white" stroke-width="0.25"/>
<path fill-rule="evenodd" clip-rule="evenodd" d="M14.1624 0.988239C14.3167 1.14248 14.3167 1.39255 14.1624 1.54679L9.42294 6.28629C9.2687 6.44053 9.01862 6.44053 8.86438 6.28629C8.71014 6.13205 8.71014 5.88198 8.86438 5.72774L13.6039 0.988239C13.7581 0.833998 14.0082 0.833998 14.1624 0.988239Z" fill="white" stroke="white" stroke-width="0.5" stroke-linecap="round" stroke-linejoin="round"/>
<path fill-rule="evenodd" clip-rule="evenodd" d="M32.4622 19.8145C32.6164 19.9688 32.6164 20.2189 32.4622 20.3731L28.1177 24.7176C27.9634 24.8719 27.7133 24.8719 27.5591 24.7176C27.4049 24.5634 27.4049 24.3133 27.5591 24.1591L31.9036 19.8145C32.0579 19.6603 32.308 19.6603 32.4622 19.8145Z" fill="white" stroke="white" stroke-width="0.5" stroke-linecap="round" stroke-linejoin="round"/>
<path fill-rule="evenodd" clip-rule="evenodd" d="M20.085 0.986466C20.2402 1.13972 20.2418 1.38979 20.0885 1.54501L9.81964 11.9456C9.66638 12.1008 9.41632 12.1024 9.2611 11.9491C9.10588 11.7959 9.10428 11.5458 9.25754 11.3906L19.5264 0.990024C19.6797 0.834804 19.9298 0.833211 20.085 0.986466Z" fill="white" stroke="white" stroke-width="0.5" stroke-linecap="round" stroke-linejoin="round"/>
<path fill-rule="evenodd" clip-rule="evenodd" d="M32.5938 13.2315C32.748 13.3857 32.748 13.6358 32.5938 13.79L22.5882 23.7956C22.434 23.9499 22.1839 23.9499 22.0296 23.7956C21.8754 23.6414 21.8754 23.3913 22.0296 23.2371L32.0352 13.2315C32.1895 13.0772 32.4396 13.0772 32.5938 13.2315Z" fill="white" stroke="white" stroke-width="0.5" stroke-linecap="round" stroke-linejoin="round"/>
<path fill-rule="evenodd" clip-rule="evenodd" d="M26.4084 1.12156C26.5614 1.27704 26.5594 1.5271 26.4039 1.6801L9.94729 17.8734C9.79181 18.0264 9.54174 18.0244 9.38875 17.8689C9.23576 17.7134 9.23778 17.4633 9.39326 17.3103L25.8498 1.11705C26.0053 0.964062 26.2554 0.966079 26.4084 1.12156Z" fill="white" stroke="white" stroke-width="0.5" stroke-linecap="round" stroke-linejoin="round"/>
<path fill-rule="evenodd" clip-rule="evenodd" d="M32.5939 7.04407C32.7481 7.19831 32.7481 7.44839 32.5939 7.60263L16.0056 24.1909C15.8514 24.3451 15.6013 24.3451 15.4471 24.1909C15.2928 24.0366 15.2928 23.7866 15.4471 23.6323L32.0353 7.04407C32.1896 6.88983 32.4396 6.88983 32.5939 7.04407Z" fill="white" stroke="white" stroke-width="0.5" stroke-linecap="round" stroke-linejoin="round"/>
<path fill-rule="evenodd" clip-rule="evenodd" d="M32.3306 1.1193C32.4848 1.27354 32.4848 1.52361 32.3306 1.67785L9.68631 24.3221C9.53206 24.4764 9.28199 24.4764 9.12775 24.3221C8.97351 24.1679 8.97351 23.9178 9.12775 23.7636L31.772 1.1193C31.9263 0.965056 32.1763 0.965056 32.3306 1.1193Z" fill="white" stroke="white" stroke-width="0.5" stroke-linecap="round" stroke-linejoin="round"/>
</svg>
