<svg width="83" height="267" viewBox="0 0 83 267" fill="none" xmlns="http://www.w3.org/2000/svg">
<path d="M38.713 0.51001H48.2126V36.5509H38.713V0.51001Z" fill="#4D4D4D"/>
<path d="M48.0399 0.51001H57.7123V36.5509H48.0399V0.51001Z" fill="#333333"/>
<path d="M28.868 0.51001H38.5402V36.5509H28.868V0.51001Z" fill="#666666"/>
<path d="M0.887268 61.2104H27.8317V266.764H0.887268V61.2104Z" fill="#666666"/>
<path d="M59.4394 61.2104H82.9294V266.764H59.4394V61.2104Z" fill="#333333"/>
<path d="M27.8317 61.2104H59.6122V266.764H27.8317V61.2104Z" fill="#4D4D4D"/>
<path opacity="0.6" d="M76.1933 67.2459H79.6478V264.005H76.1933V67.2459Z" fill="#E6E6E6"/>
<path opacity="0.6" d="M69.4572 67.2459H72.9117V264.005H69.4572V67.2459Z" fill="#E6E6E6"/>
<path opacity="0.6" d="M62.7211 67.2459H66.1755V264.005H62.7211V67.2459Z" fill="#E6E6E6"/>
<path d="M22.4774 67.2459H25.9317V264.005H22.4774V67.2459Z" fill="#E6E6E6"/>
<path d="M15.7412 67.2459H19.1956V264.005H15.7412V67.2459Z" fill="#E6E6E6"/>
<path d="M2.6145 67.2459H6.06903V264.005H2.6145V67.2459Z" fill="#E6E6E6"/>
<path d="M9.00519 67.2459H12.4595V264.005H9.00519V67.2459Z" fill="#E6E6E6"/>
<path opacity="0.8" d="M55.6396 264.005H31.8042V67.2459H55.6396V264.005ZM51.8398 70.6948H35.6041V260.556H51.8398V70.6948Z" fill="#E6E6E6"/>
<path opacity="0.8" d="M48.7308 257.28H38.5403V73.7987H48.7308V257.28ZM45.2764 78.1098H44.0674H43.3765H41.9947V252.969H43.3765H44.0674H45.2764V78.1098Z" fill="#E6E6E6"/>
<path opacity="0.8" d="M43.3765 78.1099H44.0674V252.969H43.3765V78.1099Z" fill="#E6E6E6"/>
<path d="M31.4588 25.1696H55.2941V61.2105H31.4588V25.1696Z" fill="#4D4D4D"/>
<path d="M31.4588 25.1696H55.2941V61.2105H31.4588V25.1696Z" fill="#4D4D4D"/>
<path d="M7.62335 25.1696H31.4588V61.2105H7.62335V25.1696Z" fill="#666666"/>
<path d="M55.2941 25.1696H79.1296V61.2105H55.2941V25.1696Z" fill="#333333"/>
<path d="M29.0406 0.51001H57.7123L48.2126 7.06287H38.5403L29.0406 0.51001Z" fill="#808080"/>
</svg>
